# xmcd
#
# Track frame offsets:
#	150
#	11350
#	22475
#	33790
#	44910
#	58038
#	69315
#	80638
#	91315
#	103195
#	112895
#	125560
#	138493
#	150350
#
# Disc length: 2172 seconds
#
# Revision: 1
# Processed by: cddbd v1.4PL0 Copyright (c) Steve Scherf et al.
# Submitted via: audiograbber 1.80.04
#
DISCID=ba087a0e
DTITLE=Patsy Cline - Hungry for Love- Her First Recordings, Vol 2
DYEAR=1900
DGENRE=
TTITLE0=Hungry for Love
TTITLE1=I Can't Forget
TTITLE2=That Wonderful Someone
TTITLE3=Stop the World (and Let Me Off)
TTITLE4=If I Could See the World (through the Eyes of a Child)
TTITLE5=Cry Not for Me
TTITLE6=Just Out of Reach (of My Two Open Arms)
TTITLE7=I Can See an Angel
TTITLE8=If I Could Only Stay Asleep
TTITLE9=I'm Blue Again
TTITLE10=Yes, I Undestand
TTITLE11=Life's Railway to Heaven
TTITLE12=Today, Tomorrow and Forever
TTITLE13=Just a Closer Walk with Thee
EXTD=
EXTT0=
EXTT1=
EXTT2=
EXTT3=
EXTT4=
EXTT5=
EXTT6=
EXTT7=
EXTT8=
EXTT9=
EXTT10=
EXTT11=
EXTT12=
EXTT13=
PLAYORDER=
